<?xml version="1.0" standalone="no"?>
<!DOCTYPE svg PUBLIC "-//W3C//DTD SVG 20010904//EN"
 "http://www.w3.org/TR/2001/REC-SVG-20010904/DTD/svg10.dtd">
<svg version="1.0" xmlns="http://www.w3.org/2000/svg"
 width="611.000000pt" height="611.000000pt" viewBox="0 0 611.000000 611.000000"
 preserveAspectRatio="xMidYMid meet">
<metadata>
Created by potrace 1.11, written by Peter Selinger 2001-2013
</metadata>
<g transform="translate(0.000000,611.000000) scale(0.100000,-0.100000)"
fill="#000000" stroke="none">
<path d="M2753 5157 c-35 -6 -63 -14 -63 -19 0 -4 -5 -8 -10 -8 -17 0 -104
-43 -124 -62 -11 -10 -25 -18 -30 -18 -6 0 -17 -9 -24 -20 -7 -11 -19 -20 -27
-20 -8 0 -20 -9 -27 -20 -7 -11 -18 -20 -25 -20 -7 0 -13 -3 -13 -8 0 -7 -25
-38 -78 -97 -10 -11 -25 -35 -33 -53 -7 -18 -17 -32 -21 -32 -5 0 -8 -7 -8
-15 0 -8 -4 -15 -10 -15 -5 0 -10 -9 -10 -20 0 -11 -4 -20 -10 -20 -5 0 -10
-7 -10 -15 0 -8 -4 -23 -9 -33 -5 -9 -15 -38 -22 -64 -6 -27 -15 -48 -19 -48
-8 0 -17 -56 -27 -168 -6 -65 14 -212 29 -212 4 0 8 -6 8 -13 0 -7 9 -30 20
-52 33 -65 33 -65 -77 -182 -24 -25 -43 -47 -43 -49 0 -5 -29 -40 -57 -70 -13
-13 -23 -25 -23 -28 0 -7 -27 -41 -57 -73 -13 -13 -23 -30 -23 -38 0 -8 -4
-15 -10 -15 -5 0 -10 -7 -10 -15 0 -8 -4 -15 -10 -15 -5 0 -10 -7 -10 -15 0
-8 -4 -15 -9 -15 -5 0 -14 -13 -21 -30 -7 -16 -16 -30 -21 -30 -5 0 -9 -6 -9
-13 0 -7 -9 -23 -20 -35 -11 -12 -20 -28 -20 -37 0 -8 -4 -15 -10 -15 -5 0
-10 -7 -10 -15 0 -8 -4 -15 -10 -15 -5 0 -10 -7 -10 -15 0 -8 -4 -15 -10 -15
-5 0 -10 -7 -10 -15 0 -14 -18 -53 -30 -65 -3 -3 -12 -18 -20 -35 -8 -16 -18
-32 -21 -35 -3 -3 -16 -29 -29 -57 -13 -29 -27 -53 -32 -53 -4 0 -8 -6 -8 -13
0 -18 -24 -67 -32 -67 -5 0 -8 -9 -8 -19 0 -11 -4 -23 -10 -26 -5 -3 -10 -15
-10 -26 0 -10 -4 -19 -10 -19 -5 0 -10 -11 -10 -25 0 -14 -4 -25 -8 -25 -5 0
-15 -22 -22 -50 -7 -27 -17 -50 -21 -50 -7 0 -15 -38 -25 -117 -4 -24 -10 -43
-15 -43 -5 0 -9 -67 -9 -150 0 -83 4 -150 9 -150 5 0 12 -21 15 -48 9 -82 18
-122 27 -122 5 0 9 -9 9 -20 0 -11 5 -29 10 -40 6 -11 15 -29 20 -40 6 -11 10
-27 10 -35 0 -8 4 -15 9 -15 5 0 14 -13 21 -30 7 -16 16 -30 20 -30 3 0 13
-12 21 -27 18 -35 119 -136 158 -159 17 -10 31 -21 31 -25 0 -4 14 -12 30 -19
17 -7 30 -16 30 -20 0 -3 22 -17 50 -30 51 -24 58 -36 40 -70 -7 -13 -27 -20
-80 -25 -38 -4 -70 -11 -70 -16 0 -5 -6 -9 -14 -9 -46 0 -206 -129 -206 -166
0 -8 -4 -14 -10 -14 -5 0 -10 -9 -10 -20 0 -11 -4 -20 -10 -20 -5 0 -10 -10
-10 -23 0 -13 -5 -28 -12 -35 -16 -16 -16 -248 0 -264 7 -7 12 -20 12 -30 0
-10 5 -18 10 -18 6 0 10 -7 10 -15 0 -8 5 -15 10 -15 6 0 10 -5 10 -10 0 -6
14 -23 31 -38 16 -15 44 -40 62 -56 l31 -28 1 -186 c0 -137 -4 -187 -13 -190
-6 -2 -12 -15 -12 -30 0 -14 -4 -39 -10 -56 -5 -17 -12 -43 -15 -58 -3 -15
-11 -33 -18 -40 -7 -7 -16 -22 -19 -33 -3 -11 -9 -28 -13 -38 -7 -16 -3 -18
26 -15 28 2 35 8 43 36 8 28 13 32 41 32 29 0 32 -3 27 -25 -2 -14 -8 -25 -13
-25 -5 0 -9 -4 -9 -10 0 -6 78 -10 213 -10 l212 0 -4 151 c-3 140 11 269 29
269 4 0 12 11 18 25 6 14 20 25 30 25 24 0 62 -33 62 -53 0 -9 5 -19 10 -22 6
-3 10 -26 10 -51 0 -24 5 -44 10 -44 6 0 10 -40 10 -99 0 -55 5 -122 12 -150
l11 -51 943 0 c850 0 942 2 948 16 3 9 6 58 6 110 0 99 11 119 30 57 14 -45
68 -153 86 -171 18 -18 468 -18 460 1 -3 6 -9 20 -12 29 -4 10 -10 18 -13 18
-4 0 -18 23 -31 50 -13 28 -27 50 -32 50 -4 0 -8 8 -8 18 0 10 -9 28 -20 40
-11 12 -20 26 -20 32 0 6 -4 18 -10 28 -5 9 -14 36 -20 60 -6 23 -15 42 -20
42 -6 0 -10 10 -10 22 0 24 -21 90 -31 98 -7 5 -16 53 -25 140 -4 30 -11 58
-17 62 -6 4 13 29 44 60 59 58 89 99 89 123 0 8 4 15 9 15 13 0 31 58 31 101
0 22 5 39 10 39 6 0 10 18 10 39 0 22 -4 43 -10 46 -5 3 -10 22 -10 41 0 39
-21 114 -32 114 -5 0 -8 9 -8 20 0 11 -4 20 -9 20 -5 0 -13 10 -17 22 -9 29
-149 167 -188 184 -17 8 -44 23 -61 34 -16 10 -40 19 -52 19 -13 1 -23 5 -23
10 0 5 -32 12 -70 16 -39 4 -73 11 -76 16 -3 5 0 9 5 9 6 0 11 6 11 14 0 8 9
18 20 21 11 3 20 12 20 18 0 7 9 18 20 25 11 7 20 19 20 27 0 8 6 18 13 22 16
9 47 69 47 90 0 7 4 13 10 13 5 0 15 19 22 43 6 23 18 51 25 63 7 11 18 49 24
85 14 74 23 445 13 468 -4 9 -13 56 -20 106 -6 49 -17 91 -23 93 -6 2 -11 12
-11 23 0 27 -23 99 -32 99 -5 0 -8 11 -8 24 0 14 -4 27 -9 30 -5 4 -12 24 -16
46 -4 22 -12 46 -19 53 -7 7 -16 24 -19 39 -4 15 -14 33 -22 42 -8 8 -15 18
-15 23 0 15 -25 63 -32 63 -5 0 -8 9 -8 20 0 11 -4 20 -9 20 -5 0 -12 14 -16
30 -4 17 -11 30 -15 30 -5 0 -17 17 -27 38 -9 20 -25 46 -35 56 -10 11 -18 26
-18 33 0 7 -9 18 -20 25 -11 7 -20 17 -20 23 0 5 -14 26 -30 45 -16 19 -30 40
-30 46 0 6 -10 20 -22 32 -39 36 -58 58 -58 66 0 4 -33 40 -72 80 -40 41 -90
93 -110 115 -21 23 -39 41 -42 41 -2 0 -32 27 -66 60 -34 33 -66 60 -72 60 -5
0 -23 14 -38 30 -15 17 -32 30 -37 30 -5 0 -18 8 -29 18 -10 9 -32 24 -49 32
-16 8 -32 17 -35 21 -8 9 -73 37 -102 44 -16 4 -29 12 -29 19 -3 24 3 51 12
57 5 3 14 32 20 65 6 32 14 78 20 102 12 56 12 169 -1 177 -5 3 -10 25 -10 48
0 49 -17 117 -29 117 -5 0 -11 13 -14 29 -3 16 -13 36 -22 44 -8 9 -15 20 -15
24 0 32 -144 143 -186 143 -8 0 -14 4 -14 9 0 4 -24 11 -54 15 -30 3 -60 7
-68 9 -7 2 -41 -1 -75 -6z m-103 -187 c0 -37 -35 -60 -90 -60 -58 0 -62 10
-22 51 21 21 37 28 70 28 36 1 42 -2 42 -19z m-156 -105 c-4 -8 -10 -15 -15
-15 -5 0 -9 -9 -9 -20 0 -11 -4 -20 -10 -20 -5 0 -10 -6 -10 -13 0 -17 -64
-87 -79 -87 -7 0 -23 -11 -37 -25 -34 -34 -37 -126 -5 -154 16 -14 21 -30 21
-70 0 -32 -4 -50 -10 -46 -6 4 -10 -12 -10 -39 0 -25 -4 -46 -10 -46 -5 0 -10
-6 -10 -14 0 -9 -7 -12 -19 -9 -25 6 -41 70 -41 164 0 84 19 191 36 201 6 4
15 24 18 43 4 19 11 35 16 35 6 0 10 4 10 10 0 5 25 35 55 65 42 42 61 55 84
55 23 0 29 -4 25 -15z m-44 -214 c0 -30 -74 -55 -83 -28 -8 24 6 46 32 49 36
5 51 -1 51 -21z m240 -86 c0 -8 -8 -15 -17 -14 -13 0 -14 2 -4 6 11 5 11 7 0
14 -11 7 -10 9 4 9 9 0 17 -7 17 -15z m437 -367 c-3 -8 -6 -5 -6 6 -1 11 2 17
5 13 3 -3 4 -12 1 -19z m-1060 -470 c-3 -8 -6 -5 -6 6 -1 11 2 17 5 13 3 -3 4
-12 1 -19z m-17 -23 c0 -8 -4 -15 -10 -15 -5 0 -10 -6 -10 -13 0 -7 -8 -22
-18 -33 -9 -10 -28 -40 -41 -66 -13 -27 -28 -48 -33 -48 -4 0 -8 -9 -8 -20 0
-11 -4 -20 -10 -20 -5 0 -10 -9 -10 -21 0 -11 -4 -17 -10 -14 -5 3 -10 -1 -10
-9 0 -15 -36 -87 -49 -96 -4 -3 -13 -24 -21 -47 -7 -24 -17 -43 -22 -43 -4 0
-8 -9 -8 -19 0 -11 -4 -23 -10 -26 -5 -3 -10 -15 -10 -26 0 -10 -4 -19 -10
-19 -5 0 -10 -8 -10 -18 0 -10 -4 -22 -9 -28 -4 -5 -14 -30 -21 -56 -7 -27
-16 -48 -20 -48 -7 0 -14 -24 -27 -97 -3 -18 -9 -33 -13 -33 -4 0 -10 -15 -13
-32 -3 -18 -12 -69 -21 -113 -9 -44 -16 -97 -16 -117 0 -21 -4 -38 -10 -38 -6
0 -10 -33 -10 -80 0 -47 4 -80 10 -80 6 0 10 -17 10 -37 1 -21 8 -65 16 -98 9
-33 18 -70 21 -82 3 -13 9 -23 14 -23 5 0 9 -9 9 -20 0 -11 5 -20 10 -20 6 0
10 -4 10 -10 0 -10 21 -39 58 -77 12 -13 22 -28 22 -33 0 -6 5 -10 10 -10 6 0
35 -25 65 -55 29 -30 56 -55 59 -55 10 0 61 -53 59 -61 -2 -4 4 -6 12 -3 8 4
15 1 15 -5 0 -6 -13 -11 -30 -11 -17 0 -30 -5 -31 -12 0 -7 -2 -20 -4 -29 -5
-29 14 -44 53 -40 7 1 12 15 12 34 0 19 3 36 6 40 8 7 34 -17 34 -32 0 -6 4
-11 8 -11 11 0 52 -35 52 -44 0 -6 23 -35 48 -61 17 -19 15 -25 -8 -25 -11 0
-20 5 -20 10 0 6 -11 10 -24 10 -14 0 -28 5 -31 10 -3 6 -15 10 -26 10 -10 0
-19 5 -19 10 0 6 -9 10 -20 10 -11 0 -20 5 -20 10 0 6 -9 10 -20 10 -11 0 -20
5 -20 10 0 6 -9 10 -20 10 -11 0 -20 5 -20 10 0 6 -6 10 -13 10 -7 0 -23 9
-35 20 -12 11 -26 20 -32 20 -7 0 -51 40 -98 89 -103 105 -105 108 -127 152
-10 19 -21 36 -25 39 -4 3 -13 22 -19 43 -7 20 -16 37 -21 37 -4 0 -10 15 -13
33 -4 17 -11 57 -16 87 -12 71 -12 269 0 340 5 30 13 71 16 90 3 19 12 44 19
55 7 11 16 37 19 58 4 20 11 37 16 37 5 0 14 21 20 46 7 25 18 48 25 51 8 3
14 13 14 22 0 9 7 29 15 45 8 15 15 35 15 42 0 8 4 14 10 14 5 0 14 18 20 41
6 22 18 43 26 46 7 3 14 12 14 20 0 14 28 72 41 83 3 3 11 21 19 40 8 19 22
42 32 52 10 10 18 25 18 33 0 8 4 15 9 15 5 0 20 21 33 48 13 26 29 51 35 55
7 4 13 14 13 22 0 8 14 29 30 47 17 18 30 37 30 43 0 5 13 24 30 41 16 18 26
35 23 38 -4 3 -1 6 5 6 7 0 12 -7 12 -15z m980 -25 c0 -5 18 -10 41 -10 107 0
190 -50 247 -148 26 -46 8 -172 -25 -172 -7 0 -13 -4 -13 -10 0 -5 -7 -10 -15
-10 -8 0 -15 -4 -15 -10 0 -5 -7 -10 -15 -10 -8 0 -23 -4 -33 -9 -37 -20 -195
-51 -255 -51 -20 0 -37 -4 -37 -9 0 -5 -28 -12 -62 -15 -97 -11 -193 -23 -313
-40 -132 -18 -289 -20 -353 -4 -49 12 -114 68 -127 108 -4 11 -10 20 -15 20
-9 0 -25 85 -22 114 3 22 71 96 89 96 7 0 16 6 20 13 4 8 29 19 56 27 26 7 47
16 47 20 0 4 15 10 33 13 89 15 203 41 207 47 5 7 76 12 348 26 67 4 122 11
122 15 0 5 20 9 45 9 25 0 45 -4 45 -10z m-80 -1141 c0 -44 4 -68 10 -64 6 4
10 -33 10 -104 0 -67 -4 -111 -10 -111 -5 0 -10 -6 -10 -14 0 -17 -51 -36 -97
-36 -19 0 -43 -5 -54 -10 -18 -10 -19 -5 -19 189 l0 200 43 5 c23 3 53 7 67
10 62 9 60 12 60 -65z m-200 -144 c0 -107 -3 -195 -6 -195 -3 0 -21 7 -39 16
-32 15 -75 83 -75 118 0 8 -4 18 -10 21 -6 3 -10 51 -10 109 l0 102 53 11 c96
19 87 38 87 -182z m-783 -857 c-2 -18 -4 -6 -4 27 0 33 2 48 4 33 2 -15 2 -42
0 -60z m81 -15 l-2 -58 -3 52 c-3 38 -8 53 -21 56 -12 3 -11 5 6 6 21 1 22 -3
20 -56z m1839 -135 c-3 -8 -6 -5 -6 6 -1 11 2 17 5 13 3 -3 4 -12 1 -19z
m-2340 -130 c-3 -8 -6 -5 -6 6 -1 11 2 17 5 13 3 -3 4 -12 1 -19z m1996 -25
c-7 -2 -19 -2 -25 0 -7 3 -2 5 12 5 14 0 19 -2 13 -5z m-90 -20 c-7 -2 -19 -2
-25 0 -7 3 -2 5 12 5 14 0 19 -2 13 -5z m-1020 -20 c-7 -2 -19 -2 -25 0 -7 3
-2 5 12 5 14 0 19 -2 13 -5z m945 0 c-10 -2 -28 -2 -40 0 -13 2 -5 4 17 4 22
1 32 -1 23 -4z m225 0 c-7 -2 -19 -2 -25 0 -7 3 -2 5 12 5 14 0 19 -2 13 -5z
m-1085 -20 c-10 -2 -26 -2 -35 0 -10 3 -2 5 17 5 19 0 27 -2 18 -5z m735 0
c-13 -2 -35 -2 -50 0 -16 2 -5 4 22 4 28 0 40 -2 28 -4z m-910 -20 c-7 -2 -21
-2 -30 0 -10 3 -4 5 12 5 17 0 24 -2 18 -5z m1115 0 c-10 -2 -26 -2 -35 0 -10
3 -2 5 17 5 19 0 27 -2 18 -5z m-910 -40 c-16 -2 -40 -2 -55 0 -16 2 -3 4 27
4 30 0 43 -2 28 -4z m675 0 c-18 -2 -48 -2 -65 0 -18 2 -4 4 32 4 36 0 50 -2
33 -4z m-270 -20 c-56 -2 -151 -2 -210 0 -59 1 -13 3 102 3 116 0 164 -2 108
-3z m-1406 -35 c-3 -7 -5 -2 -5 12 0 14 2 19 5 13 2 -7 2 -19 0 -25z m681
-193 c28 -32 28 -60 -1 -91 -21 -22 -26 -23 -57 -12 -66 22 -99 78 -67 113 7
8 31 14 58 15 36 0 50 -5 67 -25z m-478 -430 c0 -110 -16 -165 -49 -165 -21 0
-23 3 -16 38 3 20 13 47 21 59 8 14 14 48 14 88 0 51 3 65 15 65 12 0 15 -16
15 -85z"/>
</g>
</svg>
